<svg id="Layer_1" data-name="Layer 1" xmlns="http://www.w3.org/2000/svg" viewBox="0 0 546.98 769.68">
  <defs>
    <style>
      .cls-1 {
        fill: none;
<!--        stroke: #000;-->
        stroke-miterlimit: 10;
      }
    </style>
  </defs>
  <title>computer_min</title>
  <path stroke="red" class="cls-1" d="M1283,890.41,775,597.15c-9.39-5.43-17-17.44-17-26.84V136.2c0-4.69,1.91-7.85,5-9.15s7.34-.75,12,2l508,293.27c9.39,5.43,17,17.44,17,26.83V883.22C1300,892.62,1292.38,895.84,1283,890.41Z" transform="translate(-757.52 -123.87)"/>
  <path class="cls-1" d="M763,127.05c4.22-3,7.44-2.67,7.66-2.67A17.59,17.59,0,0,1,779,127l508,293.27c9.39,5.43,17,17.44,17,26.83V881.22c0,5.54-2.64,8.93-6.73,9.67" transform="translate(-757.52 -123.87)"/>
  <path class="cls-1" d="M1285.71,825.09,771.52,528.23a5.87,5.87,0,0,1-2.82-4.45V140.54c0-1.56,1.27-2.09,2.82-1.19l514.19,296.86a5.84,5.84,0,0,1,2.82,4.45V823.9C1288.53,825.46,1287.27,826,1285.71,825.09Z" transform="translate(-757.52 -123.87)"/>
  <path class="cls-1" d="M1149.16,813l-85.59,52.74c-11.06,5.43-28.36,5-38.65-.93l-100.43-58c-10.29-5.94-9.67-15.16,1.39-20.59l104.31-41.85" transform="translate(-757.52 -123.87)"/>
  <line class="cls-1" x1="391.82" y1="688.99" x2="391.64" y2="689.1"/>
  <path class="cls-1" d="M1153.65,815.51l-90.08,53.22c-11.06,5.43-28.36,5-38.65-.93l-100.43-58c-3.83-2.21-6.15-4.88-7-7.64a7.87,7.87,0,0,1-.2-3.82" transform="translate(-757.52 -123.87)"/>
</svg>
