<svg id="Layer_1" data-name="Layer 1" xmlns="http://www.w3.org/2000/svg" xmlns:xlink="http://www.w3.org/1999/xlink" viewBox="0 0 571.44 825.39">
  <defs>
    <style>
      .cls-1 {
        fill: none;
      }

      .cls-2 {
        isolation: isolate;
      }

      .cls-3 {
        clip-path: url(#clip-path);
      }

      .cls-4 {
        clip-path: url(#clip-path-2);
      }

      .cls-5 {
        clip-path: url(#clip-path-3);
      }

      .cls-6 {
        clip-path: url(#clip-path-4);
      }

      .cls-7 {
        clip-path: url(#clip-path-5);
      }
    </style>
    <clipPath id="clip-path" transform="translate(-605.73 -125.67)">
      <polygon class="cls-1" points="839.73 933.37 606.72 168.93 956.38 119.78 1189.4 884.23 839.73 933.37"/>
    </clipPath>
    <clipPath id="clip-path-2" transform="translate(-605.73 -125.67)">
      <polygon class="cls-1" points="988.16 894.42 971 838.12 1023.95 830.68 1041.11 886.98 988.16 894.42"/>
    </clipPath>
    <clipPath id="clip-path-3" transform="translate(-605.73 -125.67)">
      <polygon class="cls-1" points="829.93 846.44 648.41 250.92 963.81 206.6 1145.33 802.11 829.93 846.44"/>
    </clipPath>
    <clipPath id="clip-path-4" transform="translate(-605.73 -125.67)">
      <polygon class="cls-1" points="770.5 195.95 767.85 187.25 822.39 179.59 825.04 188.28 770.5 195.95"/>
    </clipPath>
    <clipPath id="clip-path-5" transform="translate(-605.73 -125.67)">
      <polygon class="cls-1" points="826.51 956.94 590.15 181.51 948.13 131.2 1184.49 906.63 826.51 956.94"/>
    </clipPath>
  </defs>
  <title>phone_min</title>
  <g class="cls-2">
    <g class="cls-3">
      <path d="M884.29,926.15c-24.25,3.41-50.37-14.79-58.23-40.57L622.11,216.48c-7.85-25.78,5.47-49.53,29.72-52.94l260-36.54c24.25-3.4,50.36,14.8,58.22,40.58l204,669.1c7.86,25.78-5.47,49.52-29.72,52.93l-260,36.54m27.26-800.07-260,36.54c-24.72,3.48-38.31,27.7-30.3,54l204,669.1c8,26.29,34.64,44.84,59.37,41.37l260-36.54c24.72-3.48,38.32-27.69,30.31-54L970.92,167.46c-8-26.28-34.65-44.85-59.37-41.38" transform="translate(-605.73 -125.67)"/>
    </g>
  </g>
  <g class="cls-2">
    <g class="cls-4">
      <path d="M1014.36,889.78c-14.13,2-29.33-8.62-33.91-23.63s3.18-28.85,17.31-30.83,29.33,8.62,33.9,23.63-3.19,28.85-17.3,30.83M997.47,834.4c-14.6,2.05-22.62,16.35-17.88,31.87s20.45,26.48,35,24.43,22.62-16.35,17.89-31.87-20.46-26.48-35.06-24.43" transform="translate(-605.73 -125.67)"/>
    </g>
  </g>
  <g class="cls-2">
    <g class="cls-5">
      <path d="M830.51,845.39l-181-593.67,313.67-44.08,181,593.67L830.51,845.39M963.81,206.6l-315.4,44.32L829.93,846.44l315.4-44.33L963.81,206.6" transform="translate(-605.73 -125.67)"/>
    </g>
  </g>
  <g class="cls-2">
    <g class="cls-6">
      <path d="M774.31,194.45a4.13,4.13,0,0,1-4.26-3,2.84,2.84,0,0,1,2.17-3.88l46.37-6.52a4.16,4.16,0,0,1,4.27,3,2.85,2.85,0,0,1-2.18,3.88l-46.37,6.51m44-14.29-46.37,6.52c-2.25.31-3.49,2.53-2.76,4.92a5.25,5.25,0,0,0,5.41,3.77L821,188.86c2.25-.32,3.49-2.53,2.76-4.92a5.26,5.26,0,0,0-5.41-3.78" transform="translate(-605.73 -125.67)"/>
    </g>
  </g>
  <g class="cls-2">
    <g class="cls-7">
      <path d="M627,176.33c-7.65,7.59-14.71,23.95-17.38,30.63-.08.19-.12.3-.14.33-4.46,9.67-5,21.35-1.48,32.87l204,669.1c8,26.28,34.64,44.85,59.37,41.38l260-36.54c10-1.41,17.43-7.1,22.78-11.89,7.59-6.8,19-29.64,19-32.79l-.92-.17c0,2.62-10.9,25.15-18.78,32.21-5.27,4.73-12.58,10.33-22.39,11.71l-260,36.54c-24.25,3.41-50.36-14.79-58.22-40.57L608.89,240c-3.44-11.3-2.92-22.75,1.46-32.23,0,0,.07-.16.15-.37,2.66-6.64,9.66-22.89,17.22-30.39l-.69-.72" transform="translate(-605.73 -125.67)"/>
    </g>
  </g>
</svg>
