<svg id="Layer_1" data-name="Layer 1" xmlns="http://www.w3.org/2000/svg" xmlns:xlink="http://www.w3.org/1999/xlink" viewBox="0 0 571.44 825.39">
  <defs>
    <style>
      .cls-1 {
        fill: none;
      }

      .cls-2 {
        isolation: isolate;
      }

      .cls-3 {
        clip-path: url(#clip-path);
      }

      .cls-4 {
        clip-path: url(#clip-path-2);
      }

      .cls-5 {
        clip-path: url(#clip-path-3);
      }

      .cls-6 {
        clip-path: url(#clip-path-4);
      }

      .cls-7 {
        clip-path: url(#clip-path-5);
      }
    </style>
    <clipPath id="clip-path" transform="translate(73.27 -20.67)">
      <polygon class="cls-1" points="160.73 828.37 -72.28 63.92 277.38 14.78 510.4 779.23 160.73 828.37"/>
    </clipPath>
    <clipPath id="clip-path-2" transform="translate(73.27 -20.67)">
      <polygon class="cls-1" points="309.17 789.42 292 733.12 344.95 725.68 362.11 781.98 309.17 789.42"/>
    </clipPath>
    <clipPath id="clip-path-3" transform="translate(73.27 -20.67)">
      <polygon class="cls-1" points="150.93 741.44 -30.59 145.92 284.81 101.6 466.33 697.11 150.93 741.44"/>
    </clipPath>
    <clipPath id="clip-path-4" transform="translate(73.27 -20.67)">
      <polygon class="cls-1" points="91.5 90.95 88.85 82.25 143.4 74.59 146.04 83.28 91.5 90.95"/>
    </clipPath>
    <clipPath id="clip-path-5" transform="translate(73.27 -20.67)">
      <polygon class="cls-1" points="147.51 851.94 -88.85 76.51 269.13 26.2 505.49 801.63 147.51 851.94"/>
    </clipPath>
  </defs>
  <title>testphone</title>
  <g class="cls-2">
    <g class="cls-3">
      <path d="M205.29,821.15c-24.25,3.41-50.37-14.79-58.23-40.57L-56.89,111.48C-64.74,85.7-51.42,62-27.17,58.54L232.83,22c24.25-3.4,50.36,14.8,58.22,40.58l204,669.1c7.86,25.78-5.47,49.52-29.72,52.93l-260,36.54M232.55,21.08l-260,36.54c-24.72,3.48-38.31,27.7-30.3,54l204,669.1c8,26.29,34.64,44.84,59.37,41.37l260-36.54c24.72-3.48,38.32-27.69,30.31-54L291.92,62.46c-8-26.28-34.65-44.85-59.37-41.38" transform="translate(73.27 -20.67)"/>
    </g>
  </g>
  <g class="cls-2">
    <g class="cls-4">
      <path d="M335.36,784.78c-14.13,2-29.33-8.62-33.91-23.63s3.18-28.85,17.31-30.83,29.33,8.62,33.9,23.63-3.19,28.85-17.3,30.83M318.47,729.4c-14.6,2.05-22.62,16.35-17.88,31.87S321,787.75,335.64,785.7s22.62-16.35,17.89-31.87-20.46-26.48-35.06-24.43" transform="translate(73.27 -20.67)"/>
    </g>
  </g>
  <g class="cls-2">
    <g class="cls-5">
      <path d="M151.51,740.39l-181-593.67,313.67-44.08,181,593.67L151.51,740.39M284.81,101.6l-315.4,44.32L150.93,741.44l315.4-44.33L284.81,101.6" transform="translate(73.27 -20.67)"/>
    </g>
  </g>
  <g class="cls-2">
    <g class="cls-6">
      <path d="M95.31,89.45a4.13,4.13,0,0,1-4.26-3,2.84,2.84,0,0,1,2.17-3.88l46.37-6.52a4.16,4.16,0,0,1,4.27,3,2.85,2.85,0,0,1-2.18,3.88L95.31,89.45m44-14.29L92.94,81.68c-2.25.31-3.49,2.53-2.76,4.92a5.25,5.25,0,0,0,5.41,3.77L142,83.86c2.25-.32,3.49-2.53,2.76-4.92a5.26,5.26,0,0,0-5.41-3.78" transform="translate(73.27 -20.67)"/>
    </g>
  </g>
  <g class="cls-2">
    <g class="cls-7">
      <path d="M-52,71.33c-7.65,7.59-14.71,24-17.38,30.63-.08.19-.12.3-.14.33-4.46,9.67-5,21.35-1.48,32.87l204,669.1c8,26.28,34.64,44.85,59.37,41.38l260-36.54c10-1.41,17.43-7.1,22.78-11.89,7.59-6.8,19-29.64,19-32.79l-.92-.17c0,2.62-10.9,25.15-18.78,32.21-5.27,4.73-12.58,10.33-22.39,11.71l-260,36.54c-24.25,3.41-50.36-14.79-58.22-40.57L-70.11,135c-3.44-11.3-2.92-22.75,1.46-32.23,0,0,.07-.16.15-.37,2.66-6.64,9.66-22.89,17.22-30.39l-.69-.72" transform="translate(73.27 -20.67)"/>
    </g>
  </g>
</svg>
