<svg id="Layer_1" data-name="Layer 1" xmlns="http://www.w3.org/2000/svg" viewBox="0 0 1160.19 695.01">
  <defs>
    <style>
      .cls-1 {
        fill: none;
        stroke: #000;
        stroke-miterlimit: 10;
      }

      .cls-2 {
        font-size: 9px;
        font-family: Roboto-Regular, Roboto;
      }

      .cls-3 {
        fill: #231f20;
      }
    </style>
  </defs>
  <title>video_min</title>
  <path class="cls-1" d="M111.4.5h935.21A30.46,30.46,0,0,1,1077.07,31V659.58a0,0,0,0,1,0,0H80.94a0,0,0,0,1,0,0V31A30.46,30.46,0,0,1,111.4.5Z"/>
  <rect class="cls-1" x="107.45" y="38.48" width="943.52" height="588.26"/>
  <circle class="cls-1" cx="578.35" cy="20.21" r="6.63"/>
  <path class="cls-1" d="M904.59,832.13H407.18s-.44,7.56,0,10c1.19,6.66,5.12,12.24,9.5,16.62,4.1,4.1,9.72,8.17,13.71,8.18,252.93.26,476.57,0,476.57,0H1066.2s223.65.26,476.57,0c4,0,9.61-4.08,13.71-8.18,4.39-4.38,8.31-10,9.5-16.62.44-2.46,0-10,0-10H904.59Z" transform="translate(-406.49 -172.55)"/>
  <rect x="128.02" y="605.97" width="2.97" height="11.93"/>
  <rect x="134.73" y="605.97" width="2.97" height="11.93"/>
  <polygon points="158.68 616.46 158.68 607.42 164.91 611.94 158.68 616.46"/>
  <rect x="166.26" y="607.42" width="1.45" height="9.03"/>
  <polygon points="182.74 614.15 185.91 614.28 189.27 617.45 189.27 606.37 185.91 609.73 182.74 609.66 182.74 614.15"/>
  <path d="M597.55,781.69c.94,0,1.7,1.24,1.7,2.77s-.76,2.77-1.7,2.77" transform="translate(-406.49 -172.55)"/>
  <text class="cls-2" transform="translate(209.28 615.09)">0:05 / 3:00</text>
  <rect class="cls-1" x="115.26" y="596.28" width="924.23" height="2.18"/>
  <polygon class="cls-3" points="1022.2 616.54 1022.2 612.02 1023.75 612.02 1023.75 614.95 1026.68 614.95 1026.68 616.54 1022.2 616.54"/>
  <polygon class="cls-3" points="1034.21 616.52 1029.7 616.52 1029.7 614.97 1032.63 614.97 1032.63 612.04 1034.21 612.04 1034.21 616.52"/>
  <polygon class="cls-3" points="1034.2 604.52 1034.2 609.04 1032.65 609.04 1032.65 606.1 1029.71 606.1 1029.71 604.52 1034.2 604.52"/>
  <polygon class="cls-3" points="1022.18 604.52 1026.7 604.52 1026.7 606.07 1023.76 606.07 1023.76 609 1022.18 609 1022.18 604.52"/>
</svg>
