<svg id="Layer_1" data-name="Layer 1" xmlns="http://www.w3.org/2000/svg" viewBox="0 0 1920 1060.03">
  <defs>
    <style>
      .cls-1 {
        fill: none;
        stroke: #000;
        stroke-miterlimit: 10;
      }
    </style>
  </defs>
  <title>Artboard 1</title>
  <path class="cls-1" d="M701.45,904.87l-508-293.26c-9.39-5.43-17-17.44-17-26.84V150.66c0-4.69,1.9-7.85,5-9.15s7.33-.75,12,2l508,293.27c9.39,5.43,17,17.44,17,26.83V897.68C718.46,907.08,710.84,910.3,701.45,904.87Z"/>
  <path class="cls-1" d="M181.46,141.51c4.22-3,7.44-2.67,7.65-2.67a17.59,17.59,0,0,1,8.38,2.63l508,293.27c9.39,5.43,17,17.44,17,26.83V895.68c0,5.54-2.64,8.93-6.74,9.67"/>
  <path class="cls-1" d="M704.17,839.55,190,542.69a5.84,5.84,0,0,1-2.82-4.45V155c0-1.56,1.26-2.09,2.82-1.19L704.17,450.67a5.87,5.87,0,0,1,2.82,4.45V838.36C707,839.92,705.72,840.45,704.17,839.55Z"/>
  <path class="cls-1" d="M567.62,827.43,482,880.17c-11,5.43-28.36,5-38.65-.93L343,821.26c-10.29-5.94-9.67-15.16,1.38-20.59l104.32-41.85"/>
  <line class="cls-1" x1="567.8" y1="827.32" x2="567.62" y2="827.43"/>
  <path id="class="thequickbrownfox"" class="cls-1" d="M572.11,830,482,883.19c-11,5.43-28.36,5-38.65-.93L343,824.28c-3.84-2.21-6.16-4.88-7-7.64a7.87,7.87,0,0,1-.21-3.82"/>
</svg>
