<svg id="Layer_1" data-name="Layer 1" xmlns="http://www.w3.org/2000/svg" viewBox="0 0 1920 1060.03">
  <defs>
    <style>
      .cls-1 {
        fill: none;
        stroke: #000;
        stroke-miterlimit: 10;
      }
    </style>
  </defs>
  <title>c_computer</title>
  <path class="cls-1" d="M546.6,783,38.65,489.76c-9.4-5.42-17-17.44-17-26.83V28.82c0-4.7,1.9-7.85,5-9.15s7.33-.75,12,2l508,293.27c9.4,5.42,17,17.43,17,26.83V775.84C563.62,785.23,556,788.45,546.6,783Z"/>
  <path class="cls-1" d="M26.62,19.67c4.22-3,7.44-2.68,7.65-2.68a17.54,17.54,0,0,1,8.38,2.64l508,293.27c9.4,5.42,17,17.43,17,26.83V773.84c0,5.53-2.65,8.92-6.74,9.67"/>
  <path class="cls-1" d="M549.32,717.71,35.14,420.84a5.84,5.84,0,0,1-2.82-4.45V33.15c0-1.55,1.26-2.09,2.82-1.19L549.32,328.83a5.84,5.84,0,0,1,2.82,4.44V716.51C552.14,718.07,550.88,718.6,549.32,717.71Z"/>
  <path class="cls-1" d="M412.77,705.58l-85.59,52.74c-11.05,5.43-28.36,5-38.65-.93l-100.42-58c-10.29-5.94-9.67-15.16,1.38-20.58L293.8,637"/>
  <line class="cls-1" x1="412.96" y1="705.47" x2="412.77" y2="705.58"/>
  <path id="aname" class="cls-1" d="M417.27,708.12l-90.09,53.22c-11.05,5.43-28.36,5-38.65-.93l-100.42-58c-3.84-2.21-6.16-4.88-7-7.64a8,8,0,0,1-.2-3.82"/>
</svg>
