<svg id="Layer_1" data-name="Layer 1" xmlns="http://www.w3.org/2000/svg" xmlns:xlink="http://www.w3.org/1999/xlink" viewBox="0 0 922 1080">
  <defs>
    <style>
      .cls-1 {
        fill: none;
      }

      .cls-2 {
        isolation: isolate;
      }

      .cls-3 {
        clip-path: url(#clip-path);
      }

      .cls-4 {
        clip-path: url(#clip-path-2);
      }

      .cls-5 {
        clip-path: url(#clip-path-3);
      }

      .cls-6 {
        clip-path: url(#clip-path-4);
      }

      .cls-7 {
        clip-path: url(#clip-path-5);
      }
    </style>
    <clipPath id="clip-path">
      <polygon class="cls-1" points="377.73 923.37 144.72 158.93 494.38 109.78 727.4 874.23 377.73 923.37"/>
    </clipPath>
    <clipPath id="clip-path-2">
      <polygon class="cls-1" points="526.16 884.42 509 828.12 561.95 820.68 579.11 876.98 526.16 884.42"/>
    </clipPath>
    <clipPath id="clip-path-3">
      <polygon class="cls-1" points="367.93 836.44 186.41 240.92 501.81 196.6 683.33 792.11 367.93 836.44"/>
    </clipPath>
    <clipPath id="clip-path-4">
      <polygon class="cls-1" points="308.5 185.95 305.85 177.25 360.39 169.59 363.05 178.28 308.5 185.95"/>
    </clipPath>
    <clipPath id="clip-path-5">
      <polygon class="cls-1" points="364.51 946.94 128.15 171.51 486.13 121.2 722.49 896.63 364.51 946.94"/>
    </clipPath>
  </defs>
  <title>mobile</title>
  <g class="cls-2">
    <g class="cls-3">
      <path d="M422.29,916.15c-24.25,3.41-50.37-14.79-58.23-40.57L160.11,206.48c-7.85-25.78,5.47-49.53,29.72-52.94l260-36.54c24.25-3.4,50.36,14.8,58.22,40.58l204,669.1c7.86,25.78-5.47,49.52-29.72,52.93l-260,36.54m27.26-800.07-260,36.54c-24.72,3.48-38.31,27.7-30.3,54l204,669.1c8,26.29,34.64,44.84,59.37,41.37l260-36.54c24.72-3.48,38.32-27.69,30.31-54L508.92,157.46c-8-26.28-34.65-44.85-59.37-41.38"/>
    </g>
  </g>
  <g class="cls-2">
    <g class="cls-4">
      <path d="M552.36,879.78c-14.13,2-29.33-8.62-33.91-23.63s3.18-28.85,17.31-30.83,29.33,8.62,33.9,23.63-3.19,28.85-17.3,30.83M535.47,824.4c-14.6,2.05-22.62,16.35-17.88,31.87s20.45,26.48,35,24.43,22.62-16.35,17.89-31.87-20.46-26.48-35.06-24.43"/>
    </g>
  </g>
  <g class="cls-2">
    <g class="cls-5">
      <path d="M368.51,835.39l-181-593.67,313.67-44.08,181,593.67L368.51,835.39M501.81,196.6l-315.4,44.32L367.93,836.44l315.4-44.33L501.81,196.6"/>
    </g>
  </g>
  <g class="cls-2">
    <g class="cls-6">
      <path d="M312.31,184.45a4.13,4.13,0,0,1-4.26-3,2.84,2.84,0,0,1,2.17-3.88l46.37-6.52a4.16,4.16,0,0,1,4.27,3,2.85,2.85,0,0,1-2.18,3.88l-46.37,6.51m44-14.29-46.37,6.52c-2.25.31-3.49,2.53-2.76,4.92a5.25,5.25,0,0,0,5.41,3.77L359,178.86c2.25-.32,3.49-2.53,2.76-4.92a5.26,5.26,0,0,0-5.41-3.78"/>
    </g>
  </g>
  <g class="cls-2">
    <g class="cls-7">
      <path d="M165,166.33c-7.65,7.59-14.71,23.95-17.38,30.63-.08.19-.12.3-.14.33-4.46,9.67-5,21.35-1.48,32.87l204,669.1c8,26.28,34.64,44.85,59.37,41.38l260-36.54c10-1.41,17.43-7.1,22.78-11.89,7.59-6.8,19-29.64,19-32.79l-.92-.17c0,2.62-10.9,25.15-18.78,32.21-5.27,4.73-12.58,10.33-22.39,11.71l-260,36.54c-24.25,3.41-50.36-14.79-58.22-40.57L146.89,230c-3.44-11.3-2.92-22.75,1.46-32.23,0,0,.07-.16.15-.37,2.66-6.64,9.66-22.89,17.22-30.39l-.69-.72"/>
    </g>
  </g>
</svg>
